<mxfile host="app.diagrams.net" modified="2024-03-19T14:53:05.608Z" agent="Mozilla/5.0 (Windows NT 10.0; Win64; x64) AppleWebKit/537.36 (KHTML, like Gecko) Chrome/121.0.0.0 Safari/537.36" etag="DygxefkYEZHZs6QKAWp3" version="23.0.1" type="github">
  <diagram name="Page-1" id="19d8dcba-68ad-dc05-1034-9cf7b2a963f6">
    <mxGraphModel dx="1434" dy="780" grid="1" gridSize="14" guides="1" tooltips="1" connect="1" arrows="1" fold="1" page="1" pageScale="1" pageWidth="1100" pageHeight="850" background="none" math="0" shadow="0">
      <root>
        <mxCell id="0" />
        <mxCell id="1" parent="0" />
        <mxCell id="uepafkn3aEIsYCHWRTWA-61" value="&lt;b&gt;Lead Software Developer&lt;/b&gt;" style="rounded=1;whiteSpace=wrap;html=1;shadow=1;fillColor=#f5f5f5;fontColor=#333333;strokeColor=#666666;" vertex="1" parent="1">
          <mxGeometry x="3" y="310" width="91.5" height="30" as="geometry" />
        </mxCell>
        <mxCell id="uepafkn3aEIsYCHWRTWA-66" value="&lt;b&gt;Software Developer(s)&lt;/b&gt;" style="rounded=1;whiteSpace=wrap;html=1;shadow=1;fillColor=#f5f5f5;fontColor=#333333;strokeColor=#666666;" vertex="1" parent="1">
          <mxGeometry x="3" y="390" width="91.5" height="30" as="geometry" />
        </mxCell>
        <mxCell id="uepafkn3aEIsYCHWRTWA-130" value="" style="group" vertex="1" connectable="0" parent="1">
          <mxGeometry x="20" y="40" width="1060" height="460" as="geometry" />
        </mxCell>
        <mxCell id="uepafkn3aEIsYCHWRTWA-1" value="&lt;b&gt;Head, IT&lt;/b&gt;" style="rounded=1;whiteSpace=wrap;html=1;strokeWidth=2;perimeterSpacing=0;glass=0;shadow=1;fontStyle=0;fillColor=#f5f5f5;fontColor=#333333;strokeColor=#666666;" vertex="1" parent="uepafkn3aEIsYCHWRTWA-130">
          <mxGeometry x="470" width="120" height="60" as="geometry" />
        </mxCell>
        <mxCell id="uepafkn3aEIsYCHWRTWA-2" value="&lt;b&gt;Head, Solution Development &amp;amp; Testing&amp;nbsp;&lt;/b&gt;" style="rounded=1;whiteSpace=wrap;html=1;strokeWidth=2;perimeterSpacing=0;glass=0;shadow=1;fillColor=#f5f5f5;fontColor=#333333;strokeColor=#666666;" vertex="1" parent="uepafkn3aEIsYCHWRTWA-130">
          <mxGeometry y="137" width="120" height="60" as="geometry" />
        </mxCell>
        <mxCell id="uepafkn3aEIsYCHWRTWA-3" value="&lt;b&gt;Head, IT Security&lt;/b&gt;" style="rounded=1;whiteSpace=wrap;html=1;strokeWidth=2;perimeterSpacing=0;glass=0;shadow=1;fillColor=#f5f5f5;fontColor=#333333;strokeColor=#666666;" vertex="1" parent="uepafkn3aEIsYCHWRTWA-130">
          <mxGeometry x="188" y="137" width="120" height="60" as="geometry" />
        </mxCell>
        <mxCell id="uepafkn3aEIsYCHWRTWA-4" value="&lt;b&gt;Head, IT Service Management&lt;/b&gt;" style="rounded=1;whiteSpace=wrap;html=1;strokeWidth=2;perimeterSpacing=0;glass=0;shadow=1;fillColor=#f5f5f5;fontColor=#333333;strokeColor=#666666;" vertex="1" parent="uepafkn3aEIsYCHWRTWA-130">
          <mxGeometry x="376" y="137" width="120" height="60" as="geometry" />
        </mxCell>
        <mxCell id="uepafkn3aEIsYCHWRTWA-5" value="&lt;b&gt;Head, PMO&lt;/b&gt;" style="rounded=1;whiteSpace=wrap;html=1;strokeWidth=2;perimeterSpacing=0;glass=0;shadow=1;fillColor=#f5f5f5;fontColor=#333333;strokeColor=#666666;" vertex="1" parent="uepafkn3aEIsYCHWRTWA-130">
          <mxGeometry x="564" y="137" width="120" height="60" as="geometry" />
        </mxCell>
        <mxCell id="uepafkn3aEIsYCHWRTWA-6" value="&lt;b&gt;Head, IT Infrastructure&lt;/b&gt;" style="rounded=1;whiteSpace=wrap;html=1;strokeWidth=2;perimeterSpacing=0;glass=0;shadow=1;fillColor=#f5f5f5;fontColor=#333333;strokeColor=#666666;" vertex="1" parent="uepafkn3aEIsYCHWRTWA-130">
          <mxGeometry x="751" y="137" width="120" height="60" as="geometry" />
        </mxCell>
        <mxCell id="uepafkn3aEIsYCHWRTWA-7" value="&lt;b&gt;Head, Enterprise Application and E-Channels&lt;/b&gt;" style="rounded=1;whiteSpace=wrap;html=1;strokeWidth=2;perimeterSpacing=0;glass=0;shadow=1;fillColor=#f5f5f5;fontColor=#333333;strokeColor=#666666;" vertex="1" parent="uepafkn3aEIsYCHWRTWA-130">
          <mxGeometry x="940" y="137" width="120" height="60" as="geometry" />
        </mxCell>
        <mxCell id="uepafkn3aEIsYCHWRTWA-11" value="" style="endArrow=none;html=1;rounded=0;entryX=0.5;entryY=1;entryDx=0;entryDy=0;" edge="1" parent="uepafkn3aEIsYCHWRTWA-130" target="uepafkn3aEIsYCHWRTWA-1">
          <mxGeometry width="50" height="50" relative="1" as="geometry">
            <mxPoint x="530" y="100" as="sourcePoint" />
            <mxPoint x="460" y="240" as="targetPoint" />
          </mxGeometry>
        </mxCell>
        <mxCell id="uepafkn3aEIsYCHWRTWA-12" value="" style="endArrow=none;html=1;rounded=0;" edge="1" parent="uepafkn3aEIsYCHWRTWA-130">
          <mxGeometry width="50" height="50" relative="1" as="geometry">
            <mxPoint x="258" y="136" as="sourcePoint" />
            <mxPoint x="258" y="100" as="targetPoint" />
          </mxGeometry>
        </mxCell>
        <mxCell id="uepafkn3aEIsYCHWRTWA-13" value="" style="endArrow=none;html=1;rounded=0;" edge="1" parent="uepafkn3aEIsYCHWRTWA-130">
          <mxGeometry width="50" height="50" relative="1" as="geometry">
            <mxPoint x="435.5" y="137" as="sourcePoint" />
            <mxPoint x="435.5" y="101" as="targetPoint" />
          </mxGeometry>
        </mxCell>
        <mxCell id="uepafkn3aEIsYCHWRTWA-14" value="" style="endArrow=none;html=1;rounded=0;" edge="1" parent="uepafkn3aEIsYCHWRTWA-130">
          <mxGeometry width="50" height="50" relative="1" as="geometry">
            <mxPoint x="623.5" y="137" as="sourcePoint" />
            <mxPoint x="623.5" y="101" as="targetPoint" />
          </mxGeometry>
        </mxCell>
        <mxCell id="uepafkn3aEIsYCHWRTWA-15" value="" style="endArrow=none;html=1;rounded=0;" edge="1" parent="uepafkn3aEIsYCHWRTWA-130">
          <mxGeometry width="50" height="50" relative="1" as="geometry">
            <mxPoint x="811.5" y="137" as="sourcePoint" />
            <mxPoint x="811.5" y="101" as="targetPoint" />
          </mxGeometry>
        </mxCell>
        <mxCell id="uepafkn3aEIsYCHWRTWA-16" value="" style="endArrow=none;html=1;rounded=0;" edge="1" parent="uepafkn3aEIsYCHWRTWA-130">
          <mxGeometry width="50" height="50" relative="1" as="geometry">
            <mxPoint x="60" y="100" as="sourcePoint" />
            <mxPoint x="1000" y="100" as="targetPoint" />
          </mxGeometry>
        </mxCell>
        <mxCell id="uepafkn3aEIsYCHWRTWA-17" value="" style="endArrow=none;html=1;rounded=0;" edge="1" parent="uepafkn3aEIsYCHWRTWA-130">
          <mxGeometry width="50" height="50" relative="1" as="geometry">
            <mxPoint x="999.5" y="137" as="sourcePoint" />
            <mxPoint x="999.5" y="101" as="targetPoint" />
          </mxGeometry>
        </mxCell>
        <mxCell id="uepafkn3aEIsYCHWRTWA-18" value="" style="endArrow=none;html=1;rounded=0;" edge="1" parent="uepafkn3aEIsYCHWRTWA-130">
          <mxGeometry width="50" height="50" relative="1" as="geometry">
            <mxPoint x="60" y="137" as="sourcePoint" />
            <mxPoint x="60" y="101" as="targetPoint" />
          </mxGeometry>
        </mxCell>
        <mxCell id="uepafkn3aEIsYCHWRTWA-19" value="" style="endArrow=none;html=1;rounded=0;" edge="1" parent="uepafkn3aEIsYCHWRTWA-130">
          <mxGeometry width="50" height="50" relative="1" as="geometry">
            <mxPoint x="60" y="240" as="sourcePoint" />
            <mxPoint x="59.5" y="197" as="targetPoint" />
          </mxGeometry>
        </mxCell>
        <mxCell id="uepafkn3aEIsYCHWRTWA-20" value="" style="endArrow=none;html=1;rounded=0;" edge="1" parent="uepafkn3aEIsYCHWRTWA-130">
          <mxGeometry width="50" height="50" relative="1" as="geometry">
            <mxPoint x="15" y="240" as="sourcePoint" />
            <mxPoint x="140" y="240" as="targetPoint" />
          </mxGeometry>
        </mxCell>
        <mxCell id="uepafkn3aEIsYCHWRTWA-22" value="" style="endArrow=none;html=1;rounded=0;" edge="1" parent="uepafkn3aEIsYCHWRTWA-130">
          <mxGeometry width="50" height="50" relative="1" as="geometry">
            <mxPoint x="248" y="240" as="sourcePoint" />
            <mxPoint x="247.5" y="197" as="targetPoint" />
          </mxGeometry>
        </mxCell>
        <mxCell id="uepafkn3aEIsYCHWRTWA-30" value="" style="endArrow=none;html=1;rounded=0;" edge="1" parent="uepafkn3aEIsYCHWRTWA-130">
          <mxGeometry width="50" height="50" relative="1" as="geometry">
            <mxPoint x="624" y="290" as="sourcePoint" />
            <mxPoint x="623.5" y="197" as="targetPoint" />
          </mxGeometry>
        </mxCell>
        <mxCell id="uepafkn3aEIsYCHWRTWA-34" value="&lt;b&gt;Lead Database Administrator&lt;/b&gt;" style="rounded=1;whiteSpace=wrap;html=1;shadow=1;fillColor=#f5f5f5;fontColor=#333333;strokeColor=#666666;" vertex="1" parent="uepafkn3aEIsYCHWRTWA-130">
          <mxGeometry x="660" y="240" width="77" height="44" as="geometry" />
        </mxCell>
        <mxCell id="uepafkn3aEIsYCHWRTWA-42" value="&lt;b&gt;Lead Network Administrator&lt;/b&gt;" style="rounded=1;whiteSpace=wrap;html=1;shadow=1;fillColor=#f5f5f5;fontColor=#333333;strokeColor=#666666;" vertex="1" parent="uepafkn3aEIsYCHWRTWA-130">
          <mxGeometry x="750" y="240" width="75" height="45" as="geometry" />
        </mxCell>
        <mxCell id="uepafkn3aEIsYCHWRTWA-46" value="&lt;b&gt;Enterprise Domain Account Manager&lt;/b&gt;" style="rounded=1;whiteSpace=wrap;html=1;shadow=1;fillColor=#f5f5f5;fontColor=#333333;strokeColor=#666666;" vertex="1" parent="uepafkn3aEIsYCHWRTWA-130">
          <mxGeometry x="840" y="240" width="106" height="42" as="geometry" />
        </mxCell>
        <mxCell id="uepafkn3aEIsYCHWRTWA-48" value="&lt;b&gt;Wintel Support(s)&lt;/b&gt;" style="rounded=1;whiteSpace=wrap;html=1;shadow=1;fillColor=#f5f5f5;fontColor=#333333;strokeColor=#666666;" vertex="1" parent="uepafkn3aEIsYCHWRTWA-130">
          <mxGeometry x="760" y="340" width="80" height="40" as="geometry" />
        </mxCell>
        <mxCell id="uepafkn3aEIsYCHWRTWA-50" value="&lt;b&gt;Lead IT Security Analyst&lt;/b&gt;" style="rounded=1;whiteSpace=wrap;html=1;shadow=1;fillColor=#f5f5f5;fontColor=#333333;strokeColor=#666666;" vertex="1" parent="uepafkn3aEIsYCHWRTWA-130">
          <mxGeometry x="197" y="240" width="105" height="42" as="geometry" />
        </mxCell>
        <mxCell id="uepafkn3aEIsYCHWRTWA-51" value="&lt;b&gt;IT Security Analyst(s)&lt;/b&gt;" style="rounded=1;whiteSpace=wrap;html=1;shadow=1;fillColor=#f5f5f5;fontColor=#333333;strokeColor=#666666;" vertex="1" parent="uepafkn3aEIsYCHWRTWA-130">
          <mxGeometry x="202.25" y="310" width="91.5" height="30" as="geometry" />
        </mxCell>
        <mxCell id="uepafkn3aEIsYCHWRTWA-53" value="&lt;b&gt;Service Manager(s)&lt;/b&gt;" style="rounded=1;whiteSpace=wrap;html=1;shadow=1;fillColor=#f5f5f5;fontColor=#333333;strokeColor=#666666;" vertex="1" parent="uepafkn3aEIsYCHWRTWA-130">
          <mxGeometry x="308" y="240" width="91.5" height="30" as="geometry" />
        </mxCell>
        <mxCell id="uepafkn3aEIsYCHWRTWA-55" value="&lt;b&gt;Vendor Manager(s)&lt;/b&gt;" style="rounded=1;whiteSpace=wrap;html=1;shadow=1;fillColor=#f5f5f5;fontColor=#333333;strokeColor=#666666;" vertex="1" parent="uepafkn3aEIsYCHWRTWA-130">
          <mxGeometry x="403" y="240" width="91.5" height="30" as="geometry" />
        </mxCell>
        <mxCell id="uepafkn3aEIsYCHWRTWA-58" value="&lt;b&gt;Enterprise Architect(s)&lt;/b&gt;" style="rounded=1;whiteSpace=wrap;html=1;shadow=1;fillColor=#f5f5f5;fontColor=#333333;strokeColor=#666666;" vertex="1" parent="uepafkn3aEIsYCHWRTWA-130">
          <mxGeometry x="498.5" y="240" width="91.5" height="30" as="geometry" />
        </mxCell>
        <mxCell id="uepafkn3aEIsYCHWRTWA-62" value="&lt;b&gt;Lead Software Tester&lt;/b&gt;" style="rounded=1;whiteSpace=wrap;html=1;shadow=1;fillColor=#f5f5f5;fontColor=#333333;strokeColor=#666666;" vertex="1" parent="uepafkn3aEIsYCHWRTWA-130">
          <mxGeometry x="80" y="270" width="91.5" height="30" as="geometry" />
        </mxCell>
        <mxCell id="uepafkn3aEIsYCHWRTWA-64" value="&lt;b&gt;Software Tester(s)&lt;/b&gt;" style="rounded=1;whiteSpace=wrap;html=1;shadow=1;fillColor=#f5f5f5;fontColor=#333333;strokeColor=#666666;" vertex="1" parent="uepafkn3aEIsYCHWRTWA-130">
          <mxGeometry x="80" y="350" width="91.5" height="30" as="geometry" />
        </mxCell>
        <mxCell id="uepafkn3aEIsYCHWRTWA-68" value="" style="endArrow=none;html=1;rounded=0;" edge="1" parent="uepafkn3aEIsYCHWRTWA-130">
          <mxGeometry width="50" height="50" relative="1" as="geometry">
            <mxPoint x="140" y="270" as="sourcePoint" />
            <mxPoint x="140" y="240" as="targetPoint" />
          </mxGeometry>
        </mxCell>
        <mxCell id="uepafkn3aEIsYCHWRTWA-69" value="" style="endArrow=none;html=1;rounded=0;" edge="1" parent="uepafkn3aEIsYCHWRTWA-130">
          <mxGeometry width="50" height="50" relative="1" as="geometry">
            <mxPoint x="14" y="270" as="sourcePoint" />
            <mxPoint x="14" y="240" as="targetPoint" />
          </mxGeometry>
        </mxCell>
        <mxCell id="uepafkn3aEIsYCHWRTWA-70" value="" style="endArrow=none;html=1;rounded=0;" edge="1" parent="uepafkn3aEIsYCHWRTWA-130">
          <mxGeometry width="50" height="50" relative="1" as="geometry">
            <mxPoint x="350" y="220" as="sourcePoint" />
            <mxPoint x="550" y="220" as="targetPoint" />
          </mxGeometry>
        </mxCell>
        <mxCell id="uepafkn3aEIsYCHWRTWA-72" value="" style="endArrow=none;html=1;rounded=0;" edge="1" parent="uepafkn3aEIsYCHWRTWA-130">
          <mxGeometry width="50" height="50" relative="1" as="geometry">
            <mxPoint x="550" y="220" as="sourcePoint" />
            <mxPoint x="550" y="240" as="targetPoint" />
          </mxGeometry>
        </mxCell>
        <mxCell id="uepafkn3aEIsYCHWRTWA-74" value="" style="endArrow=none;html=1;rounded=0;" edge="1" parent="uepafkn3aEIsYCHWRTWA-130">
          <mxGeometry width="50" height="50" relative="1" as="geometry">
            <mxPoint x="440" y="220" as="sourcePoint" />
            <mxPoint x="440" y="240" as="targetPoint" />
          </mxGeometry>
        </mxCell>
        <mxCell id="uepafkn3aEIsYCHWRTWA-75" value="" style="endArrow=none;html=1;rounded=0;" edge="1" parent="uepafkn3aEIsYCHWRTWA-130">
          <mxGeometry width="50" height="50" relative="1" as="geometry">
            <mxPoint x="350" y="220" as="sourcePoint" />
            <mxPoint x="350" y="240" as="targetPoint" />
          </mxGeometry>
        </mxCell>
        <mxCell id="uepafkn3aEIsYCHWRTWA-78" value="" style="endArrow=none;html=1;rounded=0;" edge="1" parent="uepafkn3aEIsYCHWRTWA-130">
          <mxGeometry width="50" height="50" relative="1" as="geometry">
            <mxPoint x="440" y="197" as="sourcePoint" />
            <mxPoint x="440" y="220" as="targetPoint" />
          </mxGeometry>
        </mxCell>
        <mxCell id="uepafkn3aEIsYCHWRTWA-79" value="&lt;b&gt;Lead Project Manager&lt;/b&gt;" style="rounded=1;whiteSpace=wrap;html=1;shadow=1;fillColor=#f5f5f5;fontColor=#333333;strokeColor=#666666;" vertex="1" parent="uepafkn3aEIsYCHWRTWA-130">
          <mxGeometry x="578.25" y="290" width="91.5" height="30" as="geometry" />
        </mxCell>
        <mxCell id="uepafkn3aEIsYCHWRTWA-80" value="&lt;b&gt;Project Manager(s)&lt;/b&gt;" style="rounded=1;whiteSpace=wrap;html=1;shadow=1;fillColor=#f5f5f5;fontColor=#333333;strokeColor=#666666;" vertex="1" parent="uepafkn3aEIsYCHWRTWA-130">
          <mxGeometry x="578.25" y="350" width="91.5" height="30" as="geometry" />
        </mxCell>
        <mxCell id="uepafkn3aEIsYCHWRTWA-82" value="&lt;b&gt;Business Analyst(s)&lt;/b&gt;" style="rounded=1;whiteSpace=wrap;html=1;shadow=1;fillColor=#f5f5f5;fontColor=#333333;strokeColor=#666666;" vertex="1" parent="uepafkn3aEIsYCHWRTWA-130">
          <mxGeometry x="578.25" y="410" width="91.5" height="30" as="geometry" />
        </mxCell>
        <mxCell id="uepafkn3aEIsYCHWRTWA-84" value="" style="endArrow=none;html=1;rounded=0;" edge="1" parent="uepafkn3aEIsYCHWRTWA-130">
          <mxGeometry width="50" height="50" relative="1" as="geometry">
            <mxPoint x="700" y="220" as="sourcePoint" />
            <mxPoint x="880" y="220" as="targetPoint" />
          </mxGeometry>
        </mxCell>
        <mxCell id="uepafkn3aEIsYCHWRTWA-85" value="" style="endArrow=none;html=1;rounded=0;" edge="1" parent="uepafkn3aEIsYCHWRTWA-130">
          <mxGeometry width="50" height="50" relative="1" as="geometry">
            <mxPoint x="810.5" y="197" as="sourcePoint" />
            <mxPoint x="810.5" y="220" as="targetPoint" />
          </mxGeometry>
        </mxCell>
        <mxCell id="uepafkn3aEIsYCHWRTWA-86" value="" style="endArrow=none;html=1;rounded=0;" edge="1" parent="uepafkn3aEIsYCHWRTWA-130">
          <mxGeometry width="50" height="50" relative="1" as="geometry">
            <mxPoint x="699" y="220" as="sourcePoint" />
            <mxPoint x="699" y="240" as="targetPoint" />
          </mxGeometry>
        </mxCell>
        <mxCell id="uepafkn3aEIsYCHWRTWA-87" value="" style="endArrow=none;html=1;rounded=0;" edge="1" parent="uepafkn3aEIsYCHWRTWA-130">
          <mxGeometry width="50" height="50" relative="1" as="geometry">
            <mxPoint x="810.5" y="220" as="sourcePoint" />
            <mxPoint x="810.5" y="240" as="targetPoint" />
          </mxGeometry>
        </mxCell>
        <mxCell id="uepafkn3aEIsYCHWRTWA-88" value="" style="endArrow=none;html=1;rounded=0;" edge="1" parent="uepafkn3aEIsYCHWRTWA-130">
          <mxGeometry width="50" height="50" relative="1" as="geometry">
            <mxPoint x="879.5" y="220" as="sourcePoint" />
            <mxPoint x="879.5" y="240" as="targetPoint" />
          </mxGeometry>
        </mxCell>
        <mxCell id="uepafkn3aEIsYCHWRTWA-90" value="" style="endArrow=none;html=1;rounded=0;" edge="1" parent="uepafkn3aEIsYCHWRTWA-130">
          <mxGeometry width="50" height="50" relative="1" as="geometry">
            <mxPoint x="1020" y="320" as="sourcePoint" />
            <mxPoint x="1020" y="197" as="targetPoint" />
          </mxGeometry>
        </mxCell>
        <mxCell id="uepafkn3aEIsYCHWRTWA-91" value="" style="endArrow=none;html=1;rounded=0;" edge="1" parent="uepafkn3aEIsYCHWRTWA-130">
          <mxGeometry width="50" height="50" relative="1" as="geometry">
            <mxPoint x="900" y="320" as="sourcePoint" />
            <mxPoint x="1050" y="320" as="targetPoint" />
          </mxGeometry>
        </mxCell>
        <mxCell id="uepafkn3aEIsYCHWRTWA-92" value="&lt;b&gt;IT Application Support(s)&lt;/b&gt;" style="rounded=1;whiteSpace=wrap;html=1;shadow=1;fillColor=#f5f5f5;fontColor=#333333;strokeColor=#666666;" vertex="1" parent="uepafkn3aEIsYCHWRTWA-130">
          <mxGeometry x="850" y="430" width="100" height="30" as="geometry" />
        </mxCell>
        <mxCell id="uepafkn3aEIsYCHWRTWA-93" value="&lt;b&gt;Lead IT Application Support&lt;/b&gt;" style="rounded=1;whiteSpace=wrap;html=1;shadow=1;fillColor=#f5f5f5;fontColor=#333333;strokeColor=#666666;" vertex="1" parent="uepafkn3aEIsYCHWRTWA-130">
          <mxGeometry x="850" y="350" width="100" height="50" as="geometry" />
        </mxCell>
        <mxCell id="uepafkn3aEIsYCHWRTWA-94" value="&lt;b&gt;Lead Data Scientist&lt;/b&gt;" style="rounded=1;whiteSpace=wrap;html=1;shadow=1;fillColor=#f5f5f5;fontColor=#333333;strokeColor=#666666;" vertex="1" parent="uepafkn3aEIsYCHWRTWA-130">
          <mxGeometry x="968.5" y="350" width="91.5" height="50" as="geometry" />
        </mxCell>
        <mxCell id="uepafkn3aEIsYCHWRTWA-95" value="&lt;b&gt;Data Scientist(s)&lt;/b&gt;" style="rounded=1;whiteSpace=wrap;html=1;shadow=1;fillColor=#f5f5f5;fontColor=#333333;strokeColor=#666666;" vertex="1" parent="uepafkn3aEIsYCHWRTWA-130">
          <mxGeometry x="970" y="430" width="90" height="30" as="geometry" />
        </mxCell>
        <mxCell id="uepafkn3aEIsYCHWRTWA-97" value="" style="endArrow=none;html=1;rounded=0;entryX=0.891;entryY=0;entryDx=0;entryDy=0;entryPerimeter=0;" edge="1" parent="uepafkn3aEIsYCHWRTWA-130" target="uepafkn3aEIsYCHWRTWA-94">
          <mxGeometry width="50" height="50" relative="1" as="geometry">
            <mxPoint x="1050" y="320" as="sourcePoint" />
            <mxPoint x="1050" y="340" as="targetPoint" />
          </mxGeometry>
        </mxCell>
        <mxCell id="uepafkn3aEIsYCHWRTWA-98" value="" style="endArrow=none;html=1;rounded=0;entryX=0.891;entryY=0;entryDx=0;entryDy=0;entryPerimeter=0;" edge="1" parent="uepafkn3aEIsYCHWRTWA-130">
          <mxGeometry width="50" height="50" relative="1" as="geometry">
            <mxPoint x="899.5" y="320" as="sourcePoint" />
            <mxPoint x="899.5" y="350" as="targetPoint" />
          </mxGeometry>
        </mxCell>
        <mxCell id="uepafkn3aEIsYCHWRTWA-99" value="" style="endArrow=none;html=1;rounded=0;entryX=0.891;entryY=0;entryDx=0;entryDy=0;entryPerimeter=0;" edge="1" parent="uepafkn3aEIsYCHWRTWA-130">
          <mxGeometry width="50" height="50" relative="1" as="geometry">
            <mxPoint x="899.5" y="400" as="sourcePoint" />
            <mxPoint x="899.5" y="430" as="targetPoint" />
          </mxGeometry>
        </mxCell>
        <mxCell id="uepafkn3aEIsYCHWRTWA-100" value="" style="endArrow=none;html=1;rounded=0;entryX=0.891;entryY=0;entryDx=0;entryDy=0;entryPerimeter=0;" edge="1" parent="uepafkn3aEIsYCHWRTWA-130">
          <mxGeometry width="50" height="50" relative="1" as="geometry">
            <mxPoint x="1010" y="400" as="sourcePoint" />
            <mxPoint x="1010" y="430" as="targetPoint" />
          </mxGeometry>
        </mxCell>
        <mxCell id="uepafkn3aEIsYCHWRTWA-101" value="" style="endArrow=none;html=1;rounded=0;entryX=0.891;entryY=0;entryDx=0;entryDy=0;entryPerimeter=0;" edge="1" parent="uepafkn3aEIsYCHWRTWA-130">
          <mxGeometry width="50" height="50" relative="1" as="geometry">
            <mxPoint x="623.5" y="320" as="sourcePoint" />
            <mxPoint x="623.5" y="350" as="targetPoint" />
          </mxGeometry>
        </mxCell>
        <mxCell id="uepafkn3aEIsYCHWRTWA-103" value="" style="endArrow=none;html=1;rounded=0;" edge="1" parent="uepafkn3aEIsYCHWRTWA-130">
          <mxGeometry width="50" height="50" relative="1" as="geometry">
            <mxPoint x="544" y="333" as="sourcePoint" />
            <mxPoint x="624" y="333" as="targetPoint" />
          </mxGeometry>
        </mxCell>
        <mxCell id="uepafkn3aEIsYCHWRTWA-104" value="" style="endArrow=none;html=1;rounded=0;" edge="1" parent="uepafkn3aEIsYCHWRTWA-130">
          <mxGeometry width="50" height="50" relative="1" as="geometry">
            <mxPoint x="544" y="430" as="sourcePoint" />
            <mxPoint x="543.75" y="332" as="targetPoint" />
          </mxGeometry>
        </mxCell>
        <mxCell id="uepafkn3aEIsYCHWRTWA-107" value="" style="endArrow=none;html=1;rounded=0;" edge="1" parent="uepafkn3aEIsYCHWRTWA-130">
          <mxGeometry width="50" height="50" relative="1" as="geometry">
            <mxPoint x="580" y="430" as="sourcePoint" />
            <mxPoint x="544.5" y="430" as="targetPoint" />
          </mxGeometry>
        </mxCell>
        <mxCell id="uepafkn3aEIsYCHWRTWA-113" value="" style="endArrow=none;html=1;rounded=0;entryX=0.5;entryY=1;entryDx=0;entryDy=0;" edge="1" parent="uepafkn3aEIsYCHWRTWA-130" target="uepafkn3aEIsYCHWRTWA-61">
          <mxGeometry width="50" height="50" relative="1" as="geometry">
            <mxPoint x="28.25" y="350" as="sourcePoint" />
            <mxPoint x="28.25" y="314" as="targetPoint" />
          </mxGeometry>
        </mxCell>
        <mxCell id="uepafkn3aEIsYCHWRTWA-114" value="" style="endArrow=none;html=1;rounded=0;entryX=0.437;entryY=1.033;entryDx=0;entryDy=0;entryPerimeter=0;" edge="1" parent="uepafkn3aEIsYCHWRTWA-130" target="uepafkn3aEIsYCHWRTWA-62">
          <mxGeometry width="50" height="50" relative="1" as="geometry">
            <mxPoint x="120" y="350" as="sourcePoint" />
            <mxPoint x="120" y="314" as="targetPoint" />
          </mxGeometry>
        </mxCell>
        <mxCell id="uepafkn3aEIsYCHWRTWA-115" value="" style="endArrow=none;html=1;rounded=0;" edge="1" parent="uepafkn3aEIsYCHWRTWA-130">
          <mxGeometry width="50" height="50" relative="1" as="geometry">
            <mxPoint x="247.25" y="282" as="sourcePoint" />
            <mxPoint x="247" y="309" as="targetPoint" />
          </mxGeometry>
        </mxCell>
        <mxCell id="uepafkn3aEIsYCHWRTWA-116" value="" style="endArrow=none;html=1;rounded=0;exitX=0.425;exitY=0.976;exitDx=0;exitDy=0;exitPerimeter=0;" edge="1" parent="uepafkn3aEIsYCHWRTWA-130" source="uepafkn3aEIsYCHWRTWA-46">
          <mxGeometry width="50" height="50" relative="1" as="geometry">
            <mxPoint x="886.5" y="290" as="sourcePoint" />
            <mxPoint x="886.5" y="320" as="targetPoint" />
          </mxGeometry>
        </mxCell>
        <mxCell id="uepafkn3aEIsYCHWRTWA-119" value="" style="endArrow=none;html=1;rounded=0;" edge="1" parent="uepafkn3aEIsYCHWRTWA-130">
          <mxGeometry width="50" height="50" relative="1" as="geometry">
            <mxPoint x="806" y="320" as="sourcePoint" />
            <mxPoint x="886" y="320" as="targetPoint" />
          </mxGeometry>
        </mxCell>
        <mxCell id="uepafkn3aEIsYCHWRTWA-126" value="" style="endArrow=none;html=1;rounded=0;" edge="1" parent="uepafkn3aEIsYCHWRTWA-130">
          <mxGeometry width="50" height="50" relative="1" as="geometry">
            <mxPoint x="806.5" y="320" as="sourcePoint" />
            <mxPoint x="806.5" y="340" as="targetPoint" />
          </mxGeometry>
        </mxCell>
      </root>
    </mxGraphModel>
  </diagram>
</mxfile>
